<?xml version="1.0" encoding="UTF-8"?>
<svg xmlns="http://www.w3.org/2000/svg" xmlns:xlink="http://www.w3.org/1999/xlink" width="1024pt" height="1024pt" viewBox="0 0 1024 1024" version="1.1">
<defs>
<filter id="alpha" filterUnits="objectBoundingBox" x="0%" y="0%" width="100%" height="100%">
  <feColorMatrix type="matrix" in="SourceGraphic" values="0 0 0 0 1 0 0 0 0 1 0 0 0 0 1 0 0 0 1 0"/>
</filter>
<mask id="mask0">
  <g filter="url(#alpha)">
<rect x="0" y="0" width="1024" height="1024" style="fill:rgb(0%,0%,0%);fill-opacity:0.101961;stroke:none;"/>
  </g>
</mask>
<clipPath id="clip1">
  <rect width="1024" height="1024"/>
</clipPath>
<g id="surface6" clip-path="url(#clip1)">
<path style=" stroke:none;fill-rule:nonzero;fill:rgb(13.72549%,12.156863%,12.54902%);fill-opacity:1;" d="M 634.3125 404.144531 C 594.535156 374.71875 547.546875 361.824219 501.140625 364.320312 C 540.289062 366.425781 579.027344 379.320312 612.582031 404.144531 C 615.976562 406.664062 618.269531 412.355469 618.269531 418.335938 L 618.269531 469.335938 L 640 469.335938 L 640 418.335938 C 640 412.355469 637.707031 406.664062 634.3125 404.144531 Z M 634.3125 404.144531 "/>
</g>
<mask id="mask1">
  <g filter="url(#alpha)">
<rect x="0" y="0" width="1024" height="1024" style="fill:rgb(0%,0%,0%);fill-opacity:0.101961;stroke:none;"/>
  </g>
</mask>
<clipPath id="clip2">
  <rect width="1024" height="1024"/>
</clipPath>
<g id="surface9" clip-path="url(#clip2)">
<path style=" stroke:none;fill-rule:nonzero;fill:rgb(13.72549%,12.156863%,12.54902%);fill-opacity:1;" d="M 618.269531 512 L 618.269531 575.605469 C 618.269531 587.386719 608.71875 596.9375 596.9375 596.9375 L 575.601562 596.9375 C 563.820312 596.9375 554.269531 606.488281 554.269531 618.273438 L 554.269531 831.605469 C 554.269531 843.386719 544.714844 852.941406 532.933594 852.941406 L 448 852.941406 L 448 874.671875 L 576 874.671875 L 576 640 C 576 628.207031 585.542969 618.664062 597.335938 618.664062 L 640 618.664062 L 640 512 Z M 618.269531 512 "/>
</g>
<mask id="mask2">
  <g filter="url(#alpha)">
<rect x="0" y="0" width="1024" height="1024" style="fill:rgb(0%,0%,0%);fill-opacity:0.101961;stroke:none;"/>
  </g>
</mask>
<clipPath id="clip3">
  <rect width="1024" height="1024"/>
</clipPath>
<g id="surface12" clip-path="url(#clip3)">
<path style=" stroke:none;fill-rule:nonzero;fill:rgb(13.72549%,12.156863%,12.54902%);fill-opacity:1;" d="M 540.144531 158.519531 C 545.464844 166.8125 549.335938 176.101562 549.335938 186.664062 C 549.335938 216.085938 525.414062 240 496 240 C 485.433594 240 476.148438 236.128906 467.855469 230.808594 C 477.34375 245.609375 493.148438 256 512 256 C 541.414062 256 565.335938 232.085938 565.335938 202.664062 C 565.335938 183.816406 554.945312 168.007812 540.144531 158.519531 Z M 540.144531 158.519531 "/>
</g>
<linearGradient id="linear0" gradientUnits="userSpaceOnUse" x1="-46.0957" y1="639.7961" x2="-23.3106" y2="629.1726" gradientTransform="matrix(42.6666,0,0,-42.6666,1992.6668,27583.334)">
<stop offset="0" style="stop-color:rgb(100%,100%,100%);stop-opacity:0.2;"/>
<stop offset="1" style="stop-color:rgb(100%,100%,100%);stop-opacity:0;"/>
</linearGradient>
</defs>
<g id="surface1">
<path style=" stroke:none;fill-rule:nonzero;fill:rgb(18.823529%,23.529412%,25.882353%);fill-opacity:1;" d="M 810.664062 0 L 661.332031 0 C 649.542969 0 640 9.542969 640 21.335938 C 640 33.125 649.542969 42.667969 661.335938 42.667969 L 810.667969 42.667969 C 834.1875 42.667969 853.335938 61.8125 853.335938 85.335938 L 853.335938 234.667969 C 853.335938 246.460938 862.875 256.003906 874.667969 256.003906 C 886.460938 256.003906 896 246.457031 896 234.664062 L 896 85.335938 C 896 38.269531 857.730469 0 810.664062 0 Z M 810.664062 0 "/>
<path style=" stroke:none;fill-rule:nonzero;fill:rgb(18.823529%,23.529412%,25.882353%);fill-opacity:1;" d="M 874.664062 768 C 862.875 768 853.332031 777.542969 853.332031 789.335938 L 853.332031 938.667969 C 853.332031 962.1875 834.1875 981.335938 810.664062 981.335938 L 661.332031 981.335938 C 649.539062 981.335938 639.996094 990.875 639.996094 1002.667969 C 639.996094 1014.460938 649.542969 1024 661.335938 1024 L 810.667969 1024 C 857.730469 1024 896 985.730469 896 938.664062 L 896 789.332031 C 896 777.542969 886.457031 768 874.664062 768 Z M 874.664062 768 "/>
<path style=" stroke:none;fill-rule:nonzero;fill:rgb(18.823529%,23.529412%,25.882353%);fill-opacity:1;" d="M 149.335938 256 C 161.125 256 170.667969 246.457031 170.667969 234.664062 L 170.667969 85.335938 C 170.667969 61.8125 189.8125 42.667969 213.335938 42.667969 L 362.667969 42.667969 C 374.460938 42.667969 384.003906 33.125 384.003906 21.335938 C 384.003906 9.542969 374.457031 0 362.664062 0 L 213.332031 0 C 166.269531 0 128 38.269531 128 85.335938 L 128 234.667969 C 128 246.457031 137.542969 256 149.335938 256 Z M 149.335938 256 "/>
<path style=" stroke:none;fill-rule:nonzero;fill:rgb(18.823529%,23.529412%,25.882353%);fill-opacity:1;" d="M 362.664062 981.335938 L 213.332031 981.335938 C 189.8125 981.335938 170.664062 962.1875 170.664062 938.667969 L 170.664062 789.335938 C 170.664062 777.542969 161.125 768 149.332031 768 C 137.542969 768 128 777.542969 128 789.335938 L 128 938.667969 C 128 985.730469 166.269531 1024 213.335938 1024 L 362.667969 1024 C 374.460938 1024 384.003906 1014.457031 384.003906 1002.664062 C 384.003906 990.875 374.457031 981.335938 362.664062 981.335938 Z M 362.664062 981.335938 "/>
<path style=" stroke:none;fill-rule:nonzero;fill:rgb(18.823529%,23.529412%,25.882353%);fill-opacity:1;" d="M 874.664062 469.335938 L 682.664062 469.335938 L 682.664062 418.335938 C 682.664062 398.625 674.082031 380.5 659.707031 369.855469 C 571.542969 304.605469 452.476562 304.605469 364.269531 369.855469 C 349.914062 380.5 341.332031 398.625 341.332031 418.335938 L 341.332031 469.335938 L 149.332031 469.335938 C 137.539062 469.335938 127.996094 478.875 127.996094 490.667969 C 128 502.457031 137.542969 512 149.335938 512 L 341.335938 512 L 341.335938 640 C 341.335938 651.792969 350.875 661.335938 362.667969 661.335938 L 405.335938 661.335938 L 405.335938 896 C 405.335938 907.792969 414.875 917.335938 426.667969 917.335938 L 597.335938 917.335938 C 609.125 917.335938 618.667969 907.792969 618.667969 896 L 618.667969 661.335938 L 661.335938 661.335938 C 673.125 661.335938 682.667969 651.792969 682.667969 640 L 682.667969 512 L 874.667969 512 C 886.460938 512 896.003906 502.457031 896.003906 490.664062 C 896 478.875 886.457031 469.335938 874.664062 469.335938 Z M 874.664062 469.335938 "/>
<path style=" stroke:none;fill-rule:nonzero;fill:rgb(23.921569%,50.980392%,76.862745%);fill-opacity:1;" d="M 384 418.335938 C 384 412.355469 386.292969 406.667969 389.664062 404.144531 C 463.042969 349.894531 560.976562 349.894531 634.3125 404.144531 C 637.707031 406.664062 640 412.355469 640 418.335938 L 640 469.335938 L 384 469.335938 Z M 384 418.335938 "/>
<path style=" stroke:none;fill-rule:nonzero;fill:rgb(23.921569%,50.980392%,76.862745%);fill-opacity:1;" d="M 640 618.664062 L 597.335938 618.664062 C 585.542969 618.664062 576 628.207031 576 640 L 576 874.664062 L 448 874.664062 L 448 640 C 448 628.207031 438.457031 618.664062 426.664062 618.664062 L 384 618.664062 L 384 512 L 640 512 Z M 640 618.664062 "/>
<use xlink:href="#surface6" mask="url(#mask0)"/>
<use xlink:href="#surface9" mask="url(#mask1)"/>
<path style=" stroke:none;fill-rule:nonzero;fill:rgb(18.823529%,23.529412%,25.882353%);fill-opacity:1;" d="M 608 202.664062 C 608 255.683594 565.019531 298.664062 512 298.664062 C 458.980469 298.664062 416 255.683594 416 202.664062 C 416 149.648438 458.980469 106.664062 512 106.664062 C 565.019531 106.664062 608 149.648438 608 202.664062 Z M 608 202.664062 "/>
<path style=" stroke:none;fill-rule:nonzero;fill:rgb(23.921569%,50.980392%,76.862745%);fill-opacity:1;" d="M 565.335938 202.664062 C 565.335938 232.121094 541.457031 256 512 256 C 482.542969 256 458.664062 232.121094 458.664062 202.664062 C 458.664062 173.210938 482.542969 149.332031 512 149.332031 C 541.457031 149.332031 565.335938 173.210938 565.335938 202.664062 Z M 565.335938 202.664062 "/>
<use xlink:href="#surface12" mask="url(#mask2)"/>
<path style=" stroke:none;fill-rule:nonzero;fill:url(#linear0);" d="M 810.664062 0 L 661.332031 0 C 649.542969 0 640 9.542969 640 21.335938 C 640 33.125 649.542969 42.667969 661.335938 42.667969 L 810.667969 42.667969 C 834.1875 42.667969 853.335938 61.8125 853.335938 85.335938 L 853.335938 234.667969 C 853.335938 246.460938 862.875 256.003906 874.667969 256.003906 C 886.460938 256.003906 896 246.457031 896 234.664062 L 896 85.335938 C 896 38.269531 857.730469 0 810.664062 0 Z M 874.664062 768 C 862.875 768 853.332031 777.542969 853.332031 789.335938 L 853.332031 938.667969 C 853.332031 962.1875 834.1875 981.335938 810.664062 981.335938 L 661.332031 981.335938 C 649.539062 981.335938 639.996094 990.875 639.996094 1002.667969 C 639.996094 1014.460938 649.542969 1024 661.335938 1024 L 810.667969 1024 C 857.730469 1024 896 985.730469 896 938.664062 L 896 789.332031 C 896 777.542969 886.457031 768 874.664062 768 Z M 149.335938 256 C 161.125 256 170.667969 246.457031 170.667969 234.664062 L 170.667969 85.335938 C 170.667969 61.8125 189.8125 42.667969 213.335938 42.667969 L 362.667969 42.667969 C 374.460938 42.667969 384.003906 33.125 384.003906 21.335938 C 384.003906 9.542969 374.457031 0 362.664062 0 L 213.332031 0 C 166.269531 0 128 38.269531 128 85.335938 L 128 234.667969 C 128 246.457031 137.542969 256 149.335938 256 Z M 362.664062 981.335938 L 213.332031 981.335938 C 189.8125 981.335938 170.664062 962.1875 170.664062 938.667969 L 170.664062 789.335938 C 170.664062 777.542969 161.125 768 149.332031 768 C 137.542969 768 128 777.542969 128 789.335938 L 128 938.667969 C 128 985.730469 166.269531 1024 213.335938 1024 L 362.667969 1024 C 374.460938 1024 384.003906 1014.457031 384.003906 1002.664062 C 384.003906 990.875 374.457031 981.335938 362.664062 981.335938 Z M 874.664062 469.335938 L 682.664062 469.335938 L 682.664062 418.335938 C 682.664062 398.625 674.082031 380.5 659.707031 369.855469 C 571.542969 304.605469 452.476562 304.605469 364.269531 369.855469 C 349.914062 380.5 341.332031 398.625 341.332031 418.335938 L 341.332031 469.335938 L 149.332031 469.335938 C 137.539062 469.335938 127.996094 478.875 127.996094 490.667969 C 128 502.457031 137.542969 512 149.335938 512 L 341.335938 512 L 341.335938 640 C 341.335938 651.792969 350.875 661.335938 362.667969 661.335938 L 405.335938 661.335938 L 405.335938 896 C 405.335938 907.792969 414.875 917.335938 426.667969 917.335938 L 597.335938 917.335938 C 609.125 917.335938 618.667969 907.792969 618.667969 896 L 618.667969 661.335938 L 661.335938 661.335938 C 673.125 661.335938 682.667969 651.792969 682.667969 640 L 682.667969 512 L 874.667969 512 C 886.460938 512 896.003906 502.457031 896.003906 490.664062 C 896 478.875 886.457031 469.335938 874.664062 469.335938 Z M 512 298.664062 C 564.9375 298.664062 608 255.605469 608 202.664062 C 608 149.726562 564.9375 106.664062 512 106.664062 C 459.0625 106.664062 416 149.726562 416 202.664062 C 416 255.605469 459.0625 298.664062 512 298.664062 Z M 512 298.664062 "/>
</g>
</svg>
